<svg xmlns="http://www.w3.org/2000/svg" height="64.79100036621094" width="64.78878021240234" viewBox="0 0 64.789 64.791">
  <g transform="translate(0, 0)" width="64.78878021240234" height="64.79100036621094">
    <path fill="#0a66c2" d="M0.121 3.225Zm55.084 50.2044h-9.6V38.3954c0-3.585-.064-8.2-4.993-8.2-5 0-5.765 3.906-5.765 7.939v15.294h-9.6V22.5124h9.216v4.225h.129a10.1 10.1 0 019.093-4.994c9.73 0 11.524 6.4 11.524 14.726Zm-40.79-35.143a5.571 5.571 0 115.57-5.572 5.571 5.571 0 01-5.57 5.572m4.8 35.143h-9.61V22.5124h9.61ZM59.991.0044H4.781A4.728 4.728 0 000 4.6744v55.439a4.731 4.731 0 004.781 4.675h55.21a4.741 4.741 0 004.8-4.675V4.6704a4.738 4.738 0 00-4.8-4.67"/>
  </g>
</svg>
