<svg xmlns="http://www.w3.org/2000/svg" height="64.78878021240234" width="64.79100036621094" viewBox="0 0 100 100"><g transform="translate(-190.87899780273438, 0.000011985585842921864)"><path xmlns="http://www.w3.org/2000/svg" fill="#0a66c2" d="M191 5Zm55.084 50.2044h-9.6V40.1704c0-3.585-.064-8.2-4.993-8.2-5 0-5.765 3.906-5.765 7.939v15.294h-9.6V24.2874h9.216v4.225h.129a10.1 10.1 0 019.093-4.994c9.73 0 11.524 6.4 11.524 14.726Zm-40.79-35.143a5.571 5.571 0 115.57-5.572 5.571 5.571 0 01-5.57 5.572m4.8 35.143h-9.61V24.2874h9.61ZM250.87.0044H195.66a4.728 4.728 0 00-4.781 4.67v55.439a4.731 4.731 0 004.781 4.675h55.21a4.741 4.741 0 004.8-4.675V4.6704a4.738 4.738 0 00-4.8-4.67"/></g></svg>