<svg xmlns="http://www.w3.org/2000/svg" height="800" width="1200" viewBox="-40.125525 -16.3118 347.75455 97.8708"><path xmlns="http://www.w3.org/2000/svg" fill="#0a66c2" d="M 83 55 z M 0 9.5874 h 9.993 v 36.4 h 18.5 v 9.222 H 0 z m 32.911 14.689 h 9.6 v 30.916 h -9.6 z m 4.8 -15.37 a 5.569 5.569 0 1 1 -5.57 5.569 a 5.569 5.569 0 0 1 5.57 -5.569 m 44.958 0.674 h 9.6 v 27.265 l 10.88 -12.583 h 11.77 l -12.6 14.313 l 12.335 16.63 h -12.066 l -10.191 -15.282 h -0.126 v 15.28 h -9.6 z m -34.835 14.699 h 9.219 v 4.225 h 0.131 a 10.085 10.085 0 0 1 9.09 -4.994 c 9.735 0 11.527 6.405 11.527 14.726 v 16.954 h -9.6 v -15.031 c 0 -3.588 -0.066 -8.2 -5 -8.2 c -4.99 0 -5.76 3.907 -5.76 7.939 v 15.288 h -9.6 z"/><path xmlns="http://www.w3.org/2000/svg" fill="#0a66c2" d="M 135.136 36.1384 a 5.756 5.756 0 0 0 -5.894 -5.89 a 6.406 6.406 0 0 0 -6.784 5.89 z m 8.132 13.7 a 16.909 16.909 0 0 1 -13.128 6.151 c -9.6 0 -17.286 -6.408 -17.286 -16.331 c 0 -9.923 7.685 -16.328 17.286 -16.328 c 8.973 0 14.6 6.4 14.6 16.328 v 3.01 h -22.282 a 7.171 7.171 0 0 0 7.235 6.019 a 8.193 8.193 0 0 0 6.851 -3.778 z m 21.482 -18.089 c -4.8 0 -7.68 3.205 -7.68 7.875 s 2.879 7.878 7.68 7.878 s 7.687 -3.2 7.687 -7.878 s -2.881 -7.875 -7.687 -7.875 m 16.525 23.437 h -8.838 v -4.1 h -0.131 a 12.071 12.071 0 0 1 -9.544 4.868 c -9.224 0 -15.3 -6.657 -15.3 -16.071 c 0 -8.646 5.377 -16.585 14.216 -16.585 c 3.973 0 7.684 1.087 9.861 4.1 h 0.126 V 9.5774 h 9.609 z m 64.809 0.018 h -9.6 v -15.034 c 0 -3.585 -0.064 -8.2 -4.993 -8.2 c -5 0 -5.765 3.906 -5.765 7.939 v 15.294 h -9.6 v -30.916 h 9.216 v 4.225 h 0.129 a 10.1 10.1 0 0 1 9.093 -4.994 c 9.73 0 11.524 6.4 11.524 14.726 z m -40.79 -35.143 a 5.571 5.571 0 1 1 5.57 -5.572 a 5.571 5.571 0 0 1 -5.57 5.572 m 4.8 35.143 h -9.61 v -30.917 h 9.61 z m 40.776 -55.2 h -55.21 a 4.728 4.728 0 0 0 -4.781 4.67 v 55.439 a 4.731 4.731 0 0 0 4.781 4.675 h 55.21 a 4.741 4.741 0 0 0 4.8 -4.675 V 4.6704 a 4.738 4.738 0 0 0 -4.8 -4.67"/></svg>